<svg width="64" height="64" xmlns="http://www.w3.org/2000/svg">

 <g>
  <title>background</title>
  <rect fill="none" id="canvas_background" height="402" width="582" y="-1" x="-1"/>
 </g>
 <g>
  <title>Layer 1</title>
  <path id="svg_1" fill="#a5a5a5" d="m20.152,41.47c0.068,-0.108 0.639,-1.006 1.646,-2.271l-4.798,-1.199l-3,-4l0,-2l3,0l2,-3l1.634,-4.085c-2.03,0.505 -3.213,0.993 -3.241,1.004l-0.787,-1.838c0.123,-0.053 1.421,-0.592 3.604,-1.134l-2.21,-2.947l-2,-6l-5,6l-7,0l-1,2l0,4l4,0l4,13l5,5l0,11l3,-1l6,-14l-1.043,-0.261c-1.342,1.587 -2.09,2.761 -2.109,2.791l-1.696,-1.06z"/>
  <path id="svg_2" fill="#a5a5a5" d="m61,24l0,-3l-10,-5l-3,0l-4.067,2.218c3.567,3.637 5.305,8.249 5.841,9.897c0.871,0.166 2.499,0.559 4.226,1.373l0,-3.488l7,-2z"/>
  <path id="svg_3" fill="#a5a5a5" d="m48.755,29.97c-0.053,-0.013 -5.636,-1.321 -14.404,1.967c-2.627,0.985 -4.917,2.548 -6.803,4.173l4.452,0.89l0,4l2,3l2,0l2,-6l0,-4l3,0l2,3l3,-3l1,2l0,3l8,2l-3,-4l-1,-3l2.514,-2.514c-2.321,-1.183 -4.597,-1.489 -4.638,-1.494l-0.121,-0.022z"/>
  <path id="svg_4" fill="#a5a5a5" d="m46.84,26.143c-0.938,-2.055 -2.48,-4.745 -4.75,-6.919l-5.09,2.776l-3,-2l-3,0l0,1.817c0.999,0.026 2.028,0.081 3.1,0.188c5.97,0.597 10.198,2.56 12.74,4.138z"/>
  <path id="svg_5" fill="#a5a5a5" d="m26,28l4,2l-5,3l1.122,1.683c2.056,-1.784 4.585,-3.516 7.527,-4.619c5.088,-1.907 9.16,-2.364 11.868,-2.371c-2.373,-1.421 -6.255,-3.161 -11.616,-3.697c-1.19,-0.119 -2.337,-0.179 -3.435,-0.194l-1.466,2.198l-3,2z"/>
  <path id="svg_6" fill="#a5a5a5" d="m55.218,46.377c0.013,-0.017 0.421,-0.539 0.937,-1.377l-3.155,0l-3,2l0,3l4,-1l5,2l0,-3l-1.216,-1.824c-0.527,0.84 -0.945,1.377 -1.002,1.448l-1.564,-1.247z"/>
  <path id="svg_7" fill="#a5a5a5" d="m24.196,14.98l-0.393,-1.961c0.189,-0.038 2.288,-0.44 5.196,-0.422l0,-2.597l-6,0l-3,0l0,5l2,1l3,5l4,-6l0,-0.385c-2.767,-0.021 -4.759,0.357 -4.803,0.365z"/>
  <path id="svg_8" fill="#a5a5a5" d="m53.514,31.486c1.859,0.947 3.746,2.455 4.537,4.83c1.05,3.151 -0.713,6.761 -1.897,8.684l0.846,0l0.784,1.176c1.37,-2.182 3.503,-6.477 2.165,-10.492c-1.065,-3.196 -3.599,-5.088 -5.949,-6.195l0,1.511l-0.486,0.486z"/>
  <path id="svg_9" fill="#a5a5a5" d="m41.581,16.186c-4.039,-2.886 -8.944,-3.566 -12.581,-3.588l0,2.017c3.344,0.024 7.824,0.632 11.419,3.199c0.602,0.43 1.149,0.911 1.671,1.41l1.844,-1.006c-0.712,-0.725 -1.49,-1.416 -2.353,-2.032z"/>
  <path id="svg_10" fill="#a5a5a5" d="m26.122,34.683c-1.849,1.604 -3.311,3.246 -4.324,4.517l2.159,0.54c0.924,-1.093 2.136,-2.377 3.591,-3.63l-0.548,-0.11l-0.878,-1.317z"/>
  <path id="svg_11" fill="#a5a5a5" d="m20.634,24.915c2.306,-0.573 5.709,-1.168 9.832,-1.114l0.534,-0.801l0,-1.183c-4.534,-0.119 -8.262,0.503 -10.79,1.13l0.79,1.053l-0.366,0.915z"/>
 </g>
</svg>